<?xml version="1.0" encoding="utf-8"?>
<svg xmlns="http://www.w3.org/2000/svg" viewBox="0 0 40 40" width="128" height="128">
  <path fill="#f5ce85" d="M8.482 22.802L13.281 18.003 22.618 26.136 17.236 31.517 1.951 38.045z" />
  <path fill="#967a44" d="M13.304,18.687l8.581,7.474l-4.935,4.935l-14.049,6l6.002-14.008L13.304,18.687 M13.257,17.319 L8.06,22.516L1,38.995l16.522-7.056l5.829-5.829L13.257,17.319L13.257,17.319z" />
  <path fill="#36404d" d="M5.007 29.66L1.005 39 10.37 35z" />
  <path fill="#bae0bd" d="M17.956,30.797c-0.09-0.401-0.268-0.844-0.604-1.238c-0.526-0.618-1.309-0.971-2.328-1.053 c-0.229-2.356-2.137-3.242-3.464-3.438c-0.17-1.793-1.343-2.612-2.433-2.911l20.432-20.45l8.735,8.734L17.956,30.797z" />
  <path fill="#5e9c76" d="M29.558,2.414l8.028,8.028L18.161,29.883c-0.11-0.22-0.251-0.44-0.429-0.649 c-0.543-0.636-1.302-1.032-2.265-1.18c-0.383-2.159-2.089-3.104-3.459-3.41c-0.243-1.414-1.068-2.239-1.979-2.683L29.558,2.414 M29.558,1L8.06,22.516c0,0,0.013,0,0.037,0c0.343,0,2.983,0.095,2.983,3.01c0,0,3.467,0.108,3.467,3.461 c3.448,0,2.975,2.951,2.975,2.951L39,10.442L29.558,1L29.558,1z" />
  <path fill="#bae0bd" d="M30.269 1.711L13.008 18.987 21.077 27.026 38.323 9.765z" />
</svg>